<svg width="64" height="64" viewBox="0 0 64 64" fill="none" xmlns="http://www.w3.org/2000/svg">
  <defs>
    <linearGradient id="aiGradient" x1="0%" y1="0%" x2="100%" y2="100%">
      <stop offset="0%" style="stop-color:#667eea;stop-opacity:1" />
      <stop offset="100%" style="stop-color:#764ba2;stop-opacity:1" />
    </linearGradient>
    <filter id="shadow" x="-50%" y="-50%" width="200%" height="200%">
      <feDropShadow dx="2" dy="4" stdDeviation="3" flood-color="rgba(0,0,0,0.3)"/>
    </filter>
  </defs>
  
  <!-- 3D Brain/Circuit Icon -->
  <circle cx="32" cy="32" r="28" fill="url(#aiGradient)" filter="url(#shadow)"/>
  
  <!-- Circuit pattern -->
  <path d="M20 24 L28 24 L28 20 L36 20 L36 24 L44 24" stroke="white" stroke-width="2" fill="none"/>
  <path d="M20 32 L28 32 L28 28 L36 28 L36 32 L44 32" stroke="white" stroke-width="2" fill="none"/>
  <path d="M20 40 L28 40 L28 36 L36 36 L36 40 L44 40" stroke="white" stroke-width="2" fill="none"/>
  
  <!-- AI nodes -->
  <circle cx="24" cy="24" r="3" fill="white"/>
  <circle cx="32" cy="24" r="3" fill="white"/>
  <circle cx="40" cy="24" r="3" fill="white"/>
  <circle cx="24" cy="32" r="3" fill="white"/>
  <circle cx="32" cy="32" r="3" fill="white"/>
  <circle cx="40" cy="32" r="3" fill="white"/>
  <circle cx="24" cy="40" r="3" fill="white"/>
  <circle cx="32" cy="40" r="3" fill="white"/>
  <circle cx="40" cy="40" r="3" fill="white"/>
  
  <!-- Central AI symbol -->
  <text x="32" y="50" text-anchor="middle" fill="white" font-family="Arial, sans-serif" font-size="12" font-weight="bold">AI</text>
</svg>
